<mxfile host="app.diagrams.net" agent="Mozilla/5.0 (X11; Linux x86_64) AppleWebKit/537.36 (KHTML, like Gecko) Chrome/134.0.0.0 Safari/537.36" version="27.0.4">
  <diagram name="Side-1" id="5rK9-pVdVAg5mFbw25Vv">
    <mxGraphModel dx="1426" dy="759" grid="1" gridSize="10" guides="1" tooltips="1" connect="1" arrows="1" fold="1" page="1" pageScale="1" pageWidth="1169" pageHeight="1654" math="0" shadow="0">
      <root>
        <mxCell id="0" />
        <mxCell id="1" parent="0" />
        <mxCell id="Ux653YOtKCKlgYGLcDmn-6" value="" style="ellipse;whiteSpace=wrap;html=1;aspect=fixed;fillColor=#66FF66;strokeColor=#00CC00;" parent="1" vertex="1">
          <mxGeometry x="356.25" y="186.25" width="207.5" height="207.5" as="geometry" />
        </mxCell>
        <mxCell id="Ux653YOtKCKlgYGLcDmn-3" value="" style="ellipse;whiteSpace=wrap;html=1;aspect=fixed;strokeColor=#CC0000;fillColor=#FF6666;" parent="1" vertex="1">
          <mxGeometry x="392.5" y="222.5" width="135" height="135" as="geometry" />
        </mxCell>
        <mxCell id="Ux653YOtKCKlgYGLcDmn-1" value="" style="ellipse;whiteSpace=wrap;html=1;aspect=fixed;fillColor=#0000FF;strokeColor=#000099;" parent="1" vertex="1">
          <mxGeometry x="430" y="260" width="60" height="60" as="geometry" />
        </mxCell>
        <mxCell id="Ux653YOtKCKlgYGLcDmn-2" value="Earth" style="text;html=1;align=center;verticalAlign=middle;whiteSpace=wrap;rounded=0;fontColor=#FFFFFF;" parent="1" vertex="1">
          <mxGeometry x="430" y="275" width="60" height="30" as="geometry" />
        </mxCell>
        <mxCell id="Ux653YOtKCKlgYGLcDmn-4" value="LEO" style="text;html=1;align=center;verticalAlign=middle;whiteSpace=wrap;rounded=0;" parent="1" vertex="1">
          <mxGeometry x="430" y="320" width="60" height="30" as="geometry" />
        </mxCell>
        <mxCell id="Ux653YOtKCKlgYGLcDmn-5" value="&amp;lt;2000 km" style="text;html=1;align=center;verticalAlign=middle;whiteSpace=wrap;rounded=0;" parent="1" vertex="1">
          <mxGeometry x="430" y="230" width="60" height="30" as="geometry" />
        </mxCell>
        <mxCell id="Ux653YOtKCKlgYGLcDmn-7" value="MEO" style="text;html=1;align=center;verticalAlign=middle;whiteSpace=wrap;rounded=0;" parent="1" vertex="1">
          <mxGeometry x="430" y="364" width="60" height="30" as="geometry" />
        </mxCell>
        <mxCell id="Ux653YOtKCKlgYGLcDmn-8" value="2000-35780 km" style="text;html=1;align=center;verticalAlign=middle;whiteSpace=wrap;rounded=0;" parent="1" vertex="1">
          <mxGeometry x="415" y="192.5" width="90" height="30" as="geometry" />
        </mxCell>
        <mxCell id="Ux653YOtKCKlgYGLcDmn-9" value="HEO" style="text;html=1;align=center;verticalAlign=middle;whiteSpace=wrap;rounded=0;" parent="1" vertex="1">
          <mxGeometry x="430" y="400" width="60" height="30" as="geometry" />
        </mxCell>
        <mxCell id="Ux653YOtKCKlgYGLcDmn-10" value="&amp;gt;35780 km" style="text;html=1;align=center;verticalAlign=middle;whiteSpace=wrap;rounded=0;" parent="1" vertex="1">
          <mxGeometry x="425" y="150" width="70" height="30" as="geometry" />
        </mxCell>
        <mxCell id="Ux653YOtKCKlgYGLcDmn-11" value="GEO" style="text;html=1;align=center;verticalAlign=middle;whiteSpace=wrap;rounded=0;" parent="1" vertex="1">
          <mxGeometry x="580" y="305" width="60" height="30" as="geometry" />
        </mxCell>
        <mxCell id="Ux653YOtKCKlgYGLcDmn-13" value="" style="endArrow=classic;html=1;rounded=0;entryX=1;entryY=0.5;entryDx=0;entryDy=0;" parent="1" target="Ux653YOtKCKlgYGLcDmn-6" edge="1">
          <mxGeometry width="50" height="50" relative="1" as="geometry">
            <mxPoint x="590" y="320" as="sourcePoint" />
            <mxPoint x="650" y="260" as="targetPoint" />
          </mxGeometry>
        </mxCell>
      </root>
    </mxGraphModel>
  </diagram>
</mxfile>
